<?xml version="1.0" encoding="UTF-8"?>
<svg id="_2" data-name="2" xmlns="http://www.w3.org/2000/svg" viewBox="0 0 512 511.98">
  <defs>
    <style>
      .cls-1 {
        fill: #ffae2a;
        stroke-width: 0px;
      }
    </style>
  </defs>
  <polygon class="cls-1" points="326.25 147.82 256 218.07 185.75 147.82 147.82 185.74 218.07 255.99 147.82 326.24 185.75 364.17 256 293.92 326.26 364.17 364.19 326.24 293.93 255.99 364.19 185.73 326.25 147.82"/>
  <path class="cls-1" d="M437.02,74.98C390.76,28.69,326.62-.02,256,0,185.38-.02,121.24,28.69,74.98,74.98,28.7,121.22,0,185.38,0,255.99c0,70.61,28.7,134.76,74.98,181.01,46.26,46.29,110.4,75,181.02,74.98,70.62.02,134.76-28.69,181.02-74.98,46.28-46.25,74.99-110.39,74.98-181.01.02-70.62-28.7-134.77-74.98-181.01ZM405.07,405.06c-38.22,38.18-90.77,61.74-149.07,61.74s-110.85-23.56-149.07-61.74c-38.18-38.23-61.73-90.79-61.75-149.07.02-58.28,23.57-110.85,61.75-149.07,38.22-38.19,90.78-61.74,149.07-61.74s110.85,23.55,149.07,61.74c38.18,38.22,61.74,90.79,61.75,149.07,0,58.28-23.57,110.84-61.75,149.07Z"/>
</svg>