<svg width="21" height="21" viewBox="0 0 21 21" fill="none" xmlns="http://www.w3.org/2000/svg">
<path fill-rule="evenodd" clip-rule="evenodd" d="M12.8787 1.70705C14.0503 0.535477 15.9497 0.535475 17.1213 1.70705L19.2929 3.87862C20.4645 5.0502 20.4645 6.94969 19.2929 8.12126L11.7071 15.707C11.5196 15.8946 11.2652 15.9999 11 15.9999H6C5.44772 15.9999 5 15.5522 5 14.9999V9.99994C5 9.73473 5.10536 9.48037 5.29289 9.29284L12.8787 1.70705ZM15.7071 3.12126C15.3166 2.73074 14.6834 2.73074 14.2929 3.12126L13.4142 3.99994L17 7.58573L17.8787 6.70705C18.2692 6.31652 18.2692 5.68336 17.8787 5.29284L15.7071 3.12126ZM15.5858 8.99994L12 5.41416L7 10.4142V13.9999H10.5858L15.5858 8.99994ZM5 2.99994C3.34315 2.99994 2 4.34309 2 5.99994V15.9999C2 17.6568 3.34315 18.9999 5 18.9999H15C16.6569 18.9999 18 17.6568 18 15.9999V12.9999C18 12.4477 18.4477 11.9999 19 11.9999C19.5523 11.9999 20 12.4477 20 12.9999V15.9999C20 18.7614 17.7614 20.9999 15 20.9999H5C2.23858 20.9999 0 18.7614 0 15.9999V5.99994C0 3.23852 2.23858 0.999942 5 0.999942H8C8.55228 0.999942 9 1.44766 9 1.99994C9 2.55223 8.55228 2.99994 8 2.99994H5Z" fill="#9E9E9E"/>
</svg>
